<svg xmlns="http://www.w3.org/2000/svg" xmlns:xlink="http://www.w3.org/1999/xlink" viewBox="0 0 377.24 74.11"><defs><style>.cls-1{fill:url(#Gradiente_sem_nome_29);}.cls-2{fill:#7159c1;}.cls-3{fill:#5646a3;}.cls-4{fill:url(#Gradiente_sem_nome_26);}.cls-5{fill:url(#Gradiente_sem_nome_28);}.cls-6{fill:url(#Gradiente_sem_nome_28-2);}.cls-7{fill:url(#Gradiente_sem_nome_28-3);}.cls-8{fill:url(#Gradiente_sem_nome_28-4);}.cls-9{fill:url(#Gradiente_sem_nome_29-2);}</style><linearGradient id="Gradiente_sem_nome_29" y1="37.06" x2="53.07" y2="37.06" gradientUnits="userSpaceOnUse"><stop offset="0" stop-color="#7b76c4"/><stop offset="1" stop-color="#7159c1"/></linearGradient><linearGradient id="Gradiente_sem_nome_26" x1="33.92" y1="8.51" x2="91.6" y2="8.51" gradientUnits="userSpaceOnUse"><stop offset="0.19" stop-color="#7159c1"/><stop offset="0.59" stop-color="#6651b5"/><stop offset="1" stop-color="#5646a3"/></linearGradient><linearGradient id="Gradiente_sem_nome_28" x1="279.63" y1="65.63" x2="335.14" y2="65.63" gradientUnits="userSpaceOnUse"><stop offset="0" stop-color="#5646a3"/><stop offset="1" stop-color="#7159c1"/></linearGradient><linearGradient id="Gradiente_sem_nome_28-2" x1="281.87" y1="9.15" x2="328.74" y2="9.15" xlink:href="#Gradiente_sem_nome_28"/><linearGradient id="Gradiente_sem_nome_28-3" x1="276.64" y1="28.91" x2="293.54" y2="28.91" xlink:href="#Gradiente_sem_nome_28"/><linearGradient id="Gradiente_sem_nome_28-4" x1="184.63" y1="36.75" x2="248.62" y2="36.75" xlink:href="#Gradiente_sem_nome_28"/><linearGradient id="Gradiente_sem_nome_29-2" x1="377.24" y1="37.16" x2="325.14" y2="37.16" xlink:href="#Gradiente_sem_nome_29"/></defs><title>chaveAtivo 2</title><g id="Camada_2" data-name="Camada 2"><g id="Camada_2-2" data-name="Camada 2"><path class="cls-1" d="M50.1,12.87,38.89,31.45a8.45,8.45,0,0,0,0,8.79L51.81,61.18a8.45,8.45,0,0,1-7.2,12.88h-.06a8.46,8.46,0,0,1-7.2-4l-3.67-6a8.46,8.46,0,0,0-14.43,0L15.69,70a8.46,8.46,0,0,1-7.22,4.07h0a8.45,8.45,0,0,1-7.24-12.8L13.78,40.35a8.44,8.44,0,0,0,0-8.76L2.31,12.92A8.45,8.45,0,0,1,9.51.06h0a8.46,8.46,0,0,1,7.19,4L19,7.82a8.45,8.45,0,0,0,14.44-.11l2.11-3.53A8.43,8.43,0,0,1,42.82.06h0A8.45,8.45,0,0,1,50.1,12.87Z"/><path class="cls-2" d="M96.93,7.11v2.8A7.05,7.05,0,0,1,89.88,17h0a7,7,0,0,0-7,7.05v42.7a7.05,7.05,0,0,1-7,7.05H73a7,7,0,0,1-7-7.05V24a7,7,0,0,0-7.05-7H55.42a7.06,7.06,0,0,1-6.5-9.8l1.19-2.8A7,7,0,0,1,56.6.06H89.88A7,7,0,0,1,96.93,7.11Z"/><path class="cls-3" d="M141,.06h0a8.45,8.45,0,0,1,8.45,8.45V65A8.45,8.45,0,0,1,141,73.46h0A8.45,8.45,0,0,1,132.59,65V54.21a8.45,8.45,0,0,0-8.45-8.45h-4.3a8.45,8.45,0,0,0-8.45,8.45V65a8.45,8.45,0,0,1-8.45,8.45h0A8.45,8.45,0,0,1,94.49,65V8.51A8.45,8.45,0,0,1,102.94.06h0a8.45,8.45,0,0,1,8.45,8.45v11.9a8.45,8.45,0,0,0,8.45,8.45h4.3a8.45,8.45,0,0,0,8.45-8.45V8.51A8.45,8.45,0,0,1,141,.06Z"/><path class="cls-3" d="M176,67.52h0a4.29,4.29,0,0,0-4.08-3H155a4.28,4.28,0,0,0-4.06,2.91h0a8.79,8.79,0,0,1-8.33,6h-2.2A6.72,6.72,0,0,1,134,64.58l19.42-57A11.08,11.08,0,0,1,164,.06h0a11.06,11.06,0,0,1,10.54,7.68L192.7,64.13a7.14,7.14,0,0,1-6.79,9.33h-1.74A8.61,8.61,0,0,1,176,67.52ZM163.71,47.66h0a4.28,4.28,0,0,0,4.08-5.61h0a4.29,4.29,0,0,0-8.13-.07h0A4.29,4.29,0,0,0,163.71,47.66Z"/><path class="cls-2" d="M318.19,17.56h-19.1a5.55,5.55,0,0,0-5.55,5.55h0a5.56,5.56,0,0,0,5.55,5.55h13.4A5.54,5.54,0,0,1,318,34.21V40a5.55,5.55,0,0,1-5.55,5.55h-13.4a5.55,5.55,0,0,0-5.55,5.55v.5a5.56,5.56,0,0,0,5.55,5.55h28.13a5.55,5.55,0,0,1,5.54,5.21l.35,5.8a5.56,5.56,0,0,1-5.54,5.89H282.19a5.56,5.56,0,0,1-5.55-5.55V6.3A5.55,5.55,0,0,1,282.18.75l36-.08a5.55,5.55,0,0,1,5.56,5.55V12A5.55,5.55,0,0,1,318.19,17.56Z"/><rect class="cls-4" x="33.92" y="0.06" width="55.56" height="16.9" rx="8.45"/><path class="cls-3" d="M287,12.34,266.35,32.51a6.84,6.84,0,0,0,0,9.79L287,62.37a6.84,6.84,0,0,1-4.77,11.74h-4.78a6.86,6.86,0,0,1-4.79-2l-10-9.78A6.84,6.84,0,0,0,251,67.27h0a6.84,6.84,0,0,1-6.84,6.84H241a6.83,6.83,0,0,1-6.83-6.84V7.45A6.83,6.83,0,0,1,241,.61h3.23A6.84,6.84,0,0,1,251,7.45v.1a6.84,6.84,0,0,0,11.62,4.88l10.08-9.87A6.86,6.86,0,0,1,277.52.61h4.71A6.84,6.84,0,0,1,287,12.34Z"/><rect class="cls-5" x="279.63" y="57.16" width="55.52" height="16.95"/><rect class="cls-6" x="281.87" y="0.66" width="46.88" height="16.97"/><rect class="cls-7" x="276.64" y="9.15" width="16.9" height="39.53" rx="8.45"/><path class="cls-8" d="M234.13,21.05a21.75,21.75,0,0,0-5.3-2.69,20.68,20.68,0,0,0-7.5-1.45,19.91,19.91,0,0,0-7.45,1.45,19.25,19.25,0,0,0-6.55,4.35,20.74,20.74,0,0,0-4.3,6.5,19.55,19.55,0,0,0-1.5,7.6,19.2,19.2,0,0,0,1.5,7.55,20.87,20.87,0,0,0,4.3,6.45,19.25,19.25,0,0,0,6.55,4.35,19.91,19.91,0,0,0,7.45,1.45,18.39,18.39,0,0,0,7.5-1.45,41.38,41.38,0,0,0,7-3.92,8.16,8.16,0,0,1,10,12.87,40.93,40.93,0,0,1-10.58,6.75,37.65,37.65,0,0,1-27.75,0,35.38,35.38,0,0,1-12.15-8,37.19,37.19,0,0,1-8-12,36.28,36.28,0,0,1-2.75-14,36.52,36.52,0,0,1,2.75-14.15,36.14,36.14,0,0,1,8-11.85,35.77,35.77,0,0,1,12.2-8.1A39.79,39.79,0,0,1,221.38,0c7-.15,12.24,1.67,14.45,2.92a8.68,8.68,0,0,0-1.68,3.91C234.13,8.06,234.09,18.84,234.13,21.05Z"/><path class="cls-9" d="M342,.36a36,36,0,0,1,13.75,3.5A38.15,38.15,0,0,1,367,12a37.59,37.59,0,0,1,7.5,11.6,36.35,36.35,0,0,1,2.75,14.1,35.51,35.51,0,0,1-2.7,13.85,36.24,36.24,0,0,1-7.45,11.35,36.86,36.86,0,0,1-11.15,7.85,37.6,37.6,0,0,1-13.72,3.34H330.09a5,5,0,0,1-4.95-4.94V5.2A5,5,0,0,1,330.09.26h12Zm0,50.27a4.93,4.93,0,0,0,7,4.5l.26-.12a20.41,20.41,0,0,0,5.8-4.2,19,19,0,0,0,5.25-13.15A20.45,20.45,0,0,0,355,23.91a21.38,21.38,0,0,0-5.8-4.5l-.06,0A4.87,4.87,0,0,0,342,23.68Z"/></g></g></svg>