<svg xmlns="http://www.w3.org/2000/svg" xmlns:xlink="http://www.w3.org/1999/xlink" viewBox="0 0 577.48 113.44"><defs><style>.cls-1{fill:#fff;}.cls-2{fill:url(#Gradiente_sem_nome_37);}.cls-3{fill:url(#Gradiente_sem_nome_30);}.cls-4{fill:url(#Gradiente_sem_nome_30-2);}.cls-5{fill:url(#Gradiente_sem_nome_30-3);}.cls-6{fill:url(#Gradiente_sem_nome_30-4);}</style><linearGradient id="Gradiente_sem_nome_37" x1="228.83" y1="56.27" x2="144.64" y2="56.27" gradientUnits="userSpaceOnUse"><stop offset="0" stop-color="#eaeaea"/><stop offset="0.07" stop-color="#ededed"/><stop offset="0.56" stop-color="#fafafa"/><stop offset="1" stop-color="#fff"/></linearGradient><linearGradient id="Gradiente_sem_nome_30" x1="51.93" y1="13.02" x2="136.99" y2="13.02" gradientUnits="userSpaceOnUse"><stop offset="0" stop-color="#eaeaea"/><stop offset="1" stop-color="#fff"/></linearGradient><linearGradient id="Gradiente_sem_nome_30-2" x1="423.48" y1="44.25" x2="449.35" y2="44.25" xlink:href="#Gradiente_sem_nome_30"/><linearGradient id="Gradiente_sem_nome_30-3" x1="380.59" y1="56.26" x2="282.63" y2="56.26" xlink:href="#Gradiente_sem_nome_30"/><linearGradient id="Gradiente_sem_nome_30-4" x1="193.37" y1="112.44" x2="193.37" y2="0.08" xlink:href="#Gradiente_sem_nome_30"/></defs><title>chaveAtivo 4</title><g id="Camada_2" data-name="Camada 2"><g id="Camada_1-2" data-name="Camada 1"><path class="cls-1" d="M76.68,19.7,59.53,48.14a13,13,0,0,0,0,13.46L79.3,93.66a12.93,12.93,0,0,1-11,19.71H68.2a12.94,12.94,0,0,1-11-6.16l-5.63-9.15a12.93,12.93,0,0,0-22.08.07l-5.45,9A12.93,12.93,0,0,1,13,113.37h0A12.94,12.94,0,0,1,1.87,93.77l19.23-32A12.92,12.92,0,0,0,21,48.35L3.54,19.78A12.93,12.93,0,0,1,14.56.09h0a12.93,12.93,0,0,1,11,6.14L29.11,12a12.94,12.94,0,0,0,22.11-.17l3.23-5.41A12.92,12.92,0,0,1,65.55.09h.06A12.92,12.92,0,0,1,76.68,19.7Z"/><path class="cls-1" d="M148.37,10.88v4.29A10.79,10.79,0,0,1,137.58,26h0a10.79,10.79,0,0,0-10.79,10.79v65.37A10.79,10.79,0,0,1,116,112.91h-4.29a10.79,10.79,0,0,1-10.79-10.79V36.75A10.79,10.79,0,0,0,90.13,26h-5.3a10.79,10.79,0,0,1-9.94-15L76.7,6.68A10.79,10.79,0,0,1,86.64.09h50.94A10.79,10.79,0,0,1,148.37,10.88Z"/><path class="cls-2" d="M215.9.09h0A12.93,12.93,0,0,1,228.83,13V99.51a12.93,12.93,0,0,1-12.93,12.94h0A12.93,12.93,0,0,1,203,99.51V83A12.94,12.94,0,0,0,190,70.05h-6.58A12.93,12.93,0,0,0,170.51,83V99.51a12.93,12.93,0,0,1-12.93,12.94h0a12.94,12.94,0,0,1-12.94-12.94V13A12.93,12.93,0,0,1,157.58.09h0A12.93,12.93,0,0,1,170.51,13V31.24a12.94,12.94,0,0,0,12.94,12.94H190A13,13,0,0,0,203,31.24V13A12.93,12.93,0,0,1,215.9.09Z"/><path class="cls-1" d="M487.08,26.88H457.85a8.49,8.49,0,0,0-8.5,8.49h0a8.49,8.49,0,0,0,8.5,8.5h20.51a8.49,8.49,0,0,1,8.49,8.5v8.87a8.49,8.49,0,0,1-8.49,8.5H457.85a8.49,8.49,0,0,0-8.5,8.5V79a8.5,8.5,0,0,0,8.5,8.5h43a8.5,8.5,0,0,1,8.48,8l.54,8.88a8.5,8.5,0,0,1-8.48,9H432a8.5,8.5,0,0,1-8.5-8.5V9.64A8.5,8.5,0,0,1,432,1.14L487.07,1a8.49,8.49,0,0,1,8.51,8.49v8.86A8.5,8.5,0,0,1,487.08,26.88Z"/><rect class="cls-3" x="51.93" y="0.09" width="85.06" height="25.87" rx="12.94"/><path class="cls-1" d="M439.35,18.89,407.72,49.76a10.47,10.47,0,0,0,0,15l31.56,30.73a10.46,10.46,0,0,1-7.3,18h-7.32a10.5,10.5,0,0,1-7.33-3l-15.28-15A10.46,10.46,0,0,0,384.27,103h0a10.46,10.46,0,0,1-10.47,10.46h-4.93A10.46,10.46,0,0,1,358.4,103V11.4A10.47,10.47,0,0,1,368.87.93h4.93A10.47,10.47,0,0,1,384.27,11.4v.15A10.47,10.47,0,0,0,402.06,19L417.5,3.92a10.43,10.43,0,0,1,7.32-3H432A10.47,10.47,0,0,1,439.35,18.89Z"/><rect class="cls-1" x="428.05" y="87.5" width="84.98" height="25.95"/><rect class="cls-1" x="431.48" y="1.01" width="71.76" height="25.98"/><rect class="cls-4" x="423.48" y="14" width="25.87" height="60.51" rx="12.93"/><path class="cls-5" d="M358.4,32.22s-2.18-1.79-8.11-4.12a31.84,31.84,0,0,0-11.48-2.22A30.68,30.68,0,0,0,327.4,28.1a29.4,29.4,0,0,0-10,6.66,32.09,32.09,0,0,0-6.59,10,30,30,0,0,0-2.29,11.64,29.36,29.36,0,0,0,2.29,11.55,32.26,32.26,0,0,0,6.59,9.88,29.4,29.4,0,0,0,10,6.66,30.68,30.68,0,0,0,11.41,2.22,28.25,28.25,0,0,0,11.48-2.22,64.75,64.75,0,0,0,10.68-6,12.49,12.49,0,0,1,15.31,19.7c-5,4.25-10.94,8.25-16.2,10.33a57.56,57.56,0,0,1-42.47,0A54,54,0,0,1,299,96.15a56.94,56.94,0,0,1-12.17-18.3,55.61,55.61,0,0,1-4.21-21.5,56.09,56.09,0,0,1,4.21-21.67A55.18,55.18,0,0,1,299,16.55a54.61,54.61,0,0,1,18.67-12.4A61.29,61.29,0,0,1,338.88,0C349.55-.21,357.63,2.56,361,4.49c0,0-2.5,3.31-2.56,6C358.4,12.34,358.35,28.84,358.4,32.22Z"/><path class="cls-1" d="M523.59.55a55,55,0,0,1,21,5.36,57.39,57.39,0,0,1,28.63,30.15,55.69,55.69,0,0,1,4.21,21.59,54.26,54.26,0,0,1-4.14,21.2,55.36,55.36,0,0,1-11.4,17.37,56.48,56.48,0,0,1-17.07,12,57.57,57.57,0,0,1-21,5.11l-.55,0h-18a7.57,7.57,0,0,1-7.57-7.57V8A7.56,7.56,0,0,1,505.29.4h18.3Zm0,77a7.56,7.56,0,0,0,10.71,6.9l.39-.19a31.62,31.62,0,0,0,8.88-6.43,29,29,0,0,0,5.89-9.11,28.63,28.63,0,0,0,2.15-11,30.84,30.84,0,0,0-2.15-11.41,31.34,31.34,0,0,0-6-9.64,32.43,32.43,0,0,0-8.88-6.89l-.1-.05a7.44,7.44,0,0,0-10.92,6.58Z"/><path class="cls-6" d="M157.75,112.44h0m45.39-81.21V13A12.94,12.94,0,0,1,216.07.08h0A12.93,12.93,0,0,1,229,13V99.51a12.93,12.93,0,0,1-12.93,12.93h0a12.93,12.93,0,0,1-12.94-12.93V83"/><path class="cls-1" d="M269.39,103.35h0a6.57,6.57,0,0,0-6.24-4.53H237.26a6.57,6.57,0,0,0-6.22,4.47h0a13.45,13.45,0,0,1-12.75,9.16h-3.37a10.28,10.28,0,0,1-9.73-13.6l29.72-87.27A17,17,0,0,1,251,.09h0a17,17,0,0,1,16.14,11.75L295,98.16a10.93,10.93,0,0,1-10.39,14.29h-2.67A13.16,13.16,0,0,1,269.39,103.35ZM250.61,73h0a6.56,6.56,0,0,0,6.24-8.59h0a6.57,6.57,0,0,0-12.45-.09h0A6.56,6.56,0,0,0,250.61,73Z"/></g></g></svg>